<svg version="1.2" xmlns="http://www.w3.org/2000/svg" viewBox="0 0 677 123" width="677" height="123">
	<title>Novo Projeto</title>
	<style>
	</style>
	<path id="S" fill="#ffffff" aria-label="S"  d="m95.46 51.55l-5.36 4.15q-1.75-3.22-3.5-5.3q-1.75-2.13-3.5-3.34q-1.75-1.26-3.55-1.75q-1.81-0.49-3.67-0.49q-2.62 0-5.14 0.93q-2.51 0.88-4.48 2.68q-1.97 1.8-3.17 4.48q-1.21 2.68-1.21 6.18q0 2.96 1.53 5.96q1.54 3.01 3.78 6.18q2.29 3.12 4.97 6.4q2.68 3.28 4.93 6.78q2.29 3.5 3.82 7.28q1.54 3.72 1.54 7.71q0 5.08-2.52 9.3q-2.46 4.15-6.62 7.1q-4.1 2.96-9.46 4.6q-5.36 1.58-11.1 1.58q-4.37 0-8.09-0.98q-3.67-0.98-6.35-2.9q-2.68-1.97-4.21-4.76q-1.47-2.84-1.47-6.56q0-2.62 0.65-5.19q0.66-2.57 2.13-5.09q1.48-2.52 3.89-5.03q2.4-2.52 5.85-4.98l4.32 5.14q-2.57 1.32-4.92 2.96q-2.35 1.58-4.16 3.61q-1.8 2.02-2.9 4.48q-1.04 2.41-1.04 5.36q0 2.08 0.93 4.05q0.93 1.96 2.96 3.55q2.02 1.53 5.19 2.52q3.17 0.93 7.6 0.93q4.05 0 7.99-1.15q3.99-1.15 7.11-3.39q3.11-2.25 5.03-5.64q1.97-3.39 1.97-7.93q0-2.95-1.48-6.07q-1.42-3.11-3.66-6.34q-2.19-3.23-4.76-6.56q-2.52-3.34-4.76-6.73q-2.19-3.44-3.66-6.89q-1.43-3.5-1.43-7.05q0-5.25 2.08-8.81q2.08-3.61 5.36-5.8q3.28-2.24 7.22-3.17q3.99-0.98 7.77-0.98q3.5 0 6.18 0.82q2.73 0.76 4.81 2.02q2.13 1.26 3.72 2.9q1.58 1.59 2.84 3.23z" />
	<path id="G" fill="#ffffff" aria-label="G"  d="m47.17 39.02l-1.09-1.48q6.18-2.74 9.68-8.15q3.5-5.47 3.5-12.8q0-2.35-0.6-4.37q-0.55-2.02-1.7-3.5q-1.15-1.48-2.84-2.3q-1.7-0.82-3.89-0.82q-4.64 0-9.35 2.24q-4.65 2.25-8.97 6.02q-4.26 3.77-8.04 8.69q-3.71 4.93-6.5 10.34q-2.74 5.36-4.32 10.88q-1.59 5.53-1.59 10.39q0 4.05 0.99 6.95q0.98 2.9 2.73 4.81q1.75 1.86 4.16 2.74q2.4 0.87 5.3 0.87q0.88 0 2.41-0.16q1.53-0.17 3.5-0.77q2.02-0.65 4.48-1.86q2.46-1.26 5.2-3.39l5.85-13.83h6.94l-8.09 19.41q-1.31 3.23-3.06 6.23q-1.75 2.96-4.21 5.64q-2.46 2.62-5.8 4.86q-3.34 2.25-7.93 3.94l-0.71-1.53q3.06-1.26 5.3-3.45q2.3-2.18 3.94-4.64q1.64-2.46 2.68-4.76q1.09-2.35 1.75-3.88l1.42-3.39q-2.57 1.69-4.86 2.73q-2.3 0.98-4.27 1.53q-1.97 0.49-3.56 0.66q-1.58 0.11-2.73 0.11q-3.01 0-6.4-0.82q-3.33-0.88-6.18-2.96q-2.84-2.13-4.76-5.63q-1.85-3.5-1.85-8.8q0-6.73 2.13-13.13q2.19-6.4 5.79-12.09q3.67-5.68 8.37-10.44q4.76-4.76 9.85-8.2q5.08-3.5 10.17-5.42q5.14-1.91 9.51-1.91q3.5 0 6.4 0.98q2.9 0.99 4.98 2.74q2.13 1.75 3.28 4.21q1.2 2.46 1.2 5.47q0 3.39-1.47 6.83q-1.48 3.39-4 6.4q-2.51 2.95-5.85 5.31q-3.28 2.29-6.89 3.5z" />
	<path id="Gustavo Sampaio" fill="#ffffff" aria-label="Gustavo Sampaio"  d="m182.33 46.62l-0.97-1.32q5.51-2.44 8.64-7.27q3.12-4.89 3.12-11.43q0-2.1-0.53-3.9q-0.49-1.81-1.52-3.13q-1.02-1.32-2.54-2.05q-1.51-0.73-3.46-0.73q-4.15 0-8.35 2q-4.15 2-8.01 5.37q-3.81 3.37-7.18 7.76q-3.32 4.4-5.81 9.23q-2.44 4.79-3.86 9.72q-1.41 4.93-1.41 9.28q0 3.61 0.88 6.2q0.88 2.59 2.44 4.29q1.56 1.66 3.71 2.45q2.15 0.78 4.73 0.78q0.79 0 2.15-0.15q1.37-0.15 3.13-0.68q1.8-0.59 4-1.66q2.2-1.13 4.64-3.03l5.23-12.35h6.2l-7.23 17.33q-1.17 2.88-2.73 5.57q-1.57 2.63-3.76 5.03q-2.2 2.34-5.18 4.34q-2.98 2-7.08 3.52l-0.63-1.37q2.73-1.12 4.73-3.08q2.05-1.95 3.52-4.15q1.46-2.19 2.39-4.24q0.98-2.1 1.56-3.47l1.27-3.03q-2.29 1.51-4.34 2.44q-2.05 0.88-3.81 1.37q-1.76 0.44-3.18 0.59q-1.41 0.09-2.44 0.09q-2.68 0-5.71-0.73q-2.98-0.78-5.52-2.64q-2.54-1.9-4.25-5.03q-1.66-3.12-1.66-7.86q0-6 1.91-11.72q1.95-5.71 5.17-10.79q3.28-5.07 7.47-9.32q4.25-4.25 8.79-7.33q4.54-3.12 9.09-4.83q4.59-1.71 8.49-1.71q3.13 0 5.71 0.88q2.59 0.88 4.45 2.44q1.9 1.56 2.93 3.76q1.07 2.2 1.07 4.88q0 3.03-1.32 6.11q-1.31 3.02-3.56 5.71q-2.25 2.64-5.23 4.74q-2.93 2.05-6.15 3.12zm25.64 10.3l-7.33 17.39q-0.53 1.17-0.88 2.44q-0.34 1.22-0.34 2.05q0 1.12 0.59 1.41q0.58 0.25 1.27 0.25q0.73 0 1.71-1.03q0.97-1.07 2.1-2.78q1.17-1.71 2.44-3.95q1.32-2.25 2.63-4.59q1.32-2.4 2.64-4.74q1.32-2.39 2.59-4.4q1.71-2.73 2.83-4.49q1.17-1.8 2.15-2.88q0.98-1.07 1.9-1.46q0.98-0.44 2.35-0.44q1.02 0 1.66 0.53q0.63 0.54 0.63 1.32q0 0.64-0.19 1.32q-0.15 0.68-0.39 1.22q-0.2 0.44-0.88 2.1q-0.64 1.66-1.61 4.01q-0.93 2.29-2.01 4.93q-1.02 2.63-2 5.03q-0.93 2.34-1.71 4.15q-0.73 1.8-0.97 2.39q-0.2 0.44-0.35 0.93q-0.14 0.49-0.14 0.83q0 0.58 0.24 0.78q0.3 0.19 0.73 0.19q0.69 0 1.66-0.68q0.98-0.68 2.06-2l8.93-11.04l1.22 0.98l-10.79 13.33q-1.17 1.46-2.2 2.44q-1.02 0.98-1.95 1.56q-0.88 0.54-1.81 0.78q-0.88 0.25-1.8 0.25q-1.47 0-2.44-0.83q-0.98-0.88-0.98-2.2q0-1.46 0.54-3.03q0.58-1.56 1.66-3.9q0.39-0.83 0.92-2.15q0.59-1.37 1.22-2.83q0.64-1.52 1.27-3.03q0.64-1.51 1.13-2.73q0.49-1.27 0.78-2.1q0.34-0.83 0.34-0.98q0-0.49-0.34-0.49q-0.44 0-0.93 0.73q-3.08 4.69-5.37 8.99q-2.29 4.25-4.39 7.52q-2.1 3.22-4.25 5.12q-2.1 1.91-4.79 1.91q-1.61 0-2.78-1.17q-1.12-1.22-1.12-3.42q0-0.88 0.14-1.81q0.2-0.93 0.44-1.71q0.25-0.83 0.44-1.46q0.25-0.64 0.39-0.93l7.33-17.53q0.14-0.34 0.14-0.54q0-0.29-0.19-0.39q-0.15-0.14-0.39-0.14q-0.49 0-0.88 0.53l-9.67 11.97l-1.22-0.98l10.99-13.57q1.27-1.57 2.63-2.74q1.42-1.22 2.93-1.22q1.42 0 2.05 0.78q0.64 0.74 0.64 1.66q0 0.93-0.34 2.1q-0.35 1.17-0.88 2.44zm17.62 25.93q0-0.73 0.59-1.76q0.59-1.02 1.46-1.9q0.88-0.93 1.86-1.56q0.98-0.69 1.76-0.69q0.97 0 1.12 0.64q0.2 0.58 0.1 1.32q-0.05 0.73-0.05 1.36q0 0.59 0.73 0.59q2.05 0 3.81-1.76q1.76-1.76 3.03-4.49q1.32-2.73 2.05-6.1q0.73-3.42 0.73-6.64q0-2.79-0.58-4.55q-0.54-1.8-1.23-3.07q-1.66 2.39-4.34 5.86q-2.64 3.46-6.74 8.69l-1.22-0.98q3.91-4.98 6.69-8.59q2.78-3.66 4.78-6.54q-0.24-0.54-0.43-0.98q-0.15-0.49-0.15-0.98q0-1.12 0.63-2.29q0.64-1.22 1.61-2.2q0.98-0.98 2.15-1.56q1.22-0.64 2.35-0.64q0.58 0 1.27 0.35q0.68 0.29 0.68 1.31q0 0.35-0.34 0.93q-0.34 0.59-0.78 1.22q-0.39 0.64-0.74 1.22q-0.34 0.59-0.34 0.93q0 0.39 0.3 1.27q0.34 0.88 0.68 2.25q0.39 1.36 0.68 3.17q0.34 1.76 0.34 3.95q0 2.74-0.68 5.47q-0.68 2.69-1.85 5.23q-1.18 2.49-2.79 4.73q-1.61 2.25-3.46 4.01q3.66-2 7.71-5.42q4.05-3.42 8.25-8.74l1.22 0.97q-2.93 3.76-6.05 6.69q-3.13 2.93-6.25 5.13q-3.13 2.2-6.2 3.66q-3.03 1.42-5.81 2.15q-0.83 0.25-1.66 0.39q-0.78 0.1-1.61 0.1q-0.54 0-1.13-0.05q-0.58-0.1-1.07-0.34q-0.49-0.24-0.78-0.64q-0.3-0.43-0.3-1.12zm56.69-53.03l-3.85 9.14h13.81l-0.92 2h-13.72l-15.09 35.74q-0.2 0.49-0.39 1.12q-0.2 0.59-0.2 1.13q0 0.58 0.34 0.97q0.35 0.34 0.98 0.34q1.12 0 2.49-1.07q1.37-1.12 2.44-2.44l8.94-11.04l1.22 0.98l-10.3 12.74q-2.4 2.93-4.55 4.3q-2.14 1.32-4.05 1.32q-0.73 0-1.46-0.2q-0.74-0.24-1.32-0.63q-0.59-0.44-0.98-1.08q-0.34-0.68-0.34-1.56q0-1.22 0.54-2.63q0.58-1.47 1.56-3.86l9.23-22.02q-0.78 1.22-1.81 2.73q-1.02 1.51-2.44 3.42q-1.42 1.9-3.27 4.3q-1.86 2.34-4.25 5.27l-1.22-0.98q4.54-5.56 7.47-9.57q2.93-4.05 4.83-7.08q1.96-3.07 3.18-5.47q1.27-2.39 2.39-4.73h-11.86l0.92-2h11.97l3.85-9.14zm15.92 46.88q-0.19 0.44-0.34 0.93q-0.15 0.49-0.15 0.83q0 0.58 0.25 0.78q0.29 0.19 0.73 0.19q0.68 0 1.66-0.68q0.98-0.68 2.05-2l8.94-11.04l1.22 0.98l-10.79 13.33q-1.18 1.46-2.2 2.44q-1.03 0.98-1.95 1.56q-0.88 0.54-1.81 0.78q-0.88 0.25-1.81 0.25q-1.46 0-2.44-0.83q-0.98-0.88-0.98-2.2q0-1.46 0.54-3.03q0.59-1.56 1.66-3.9q0.39-0.83 0.93-2.15q0.59-1.37 1.22-2.83q0.64-1.52 1.27-3.03q0.63-1.51 1.12-2.73q0.49-1.27 0.78-2.1q0.35-0.83 0.35-0.98q0-0.49-0.35-0.49q-0.44 0-0.92 0.73q-0.3 0.39-1.18 1.66q-0.87 1.27-2.14 3.03q-1.27 1.76-2.74 3.81q-1.46 2.05-2.93 4q-1.46 1.96-2.78 3.57q-1.32 1.61-2.25 2.54q-2.34 2.34-4.15 3.71q-1.8 1.32-3.56 1.32q-0.59 0-1.32-0.25q-0.68-0.24-1.32-0.83q-0.58-0.63-0.98-1.71q-0.39-1.12-0.39-2.83q0-2.54 1.13-5.61q1.17-3.08 3.17-6.25q2-3.23 4.74-6.3q2.73-3.08 5.91-5.52q3.22-2.49 6.73-4.15q3.52-1.66 7.13-2v0.88q-2.98 0.88-5.71 2.73q-2.73 1.81-5.13 4.2q-2.39 2.39-4.34 5.13q-1.96 2.68-3.37 5.32q-1.42 2.64-2.2 5.03q-0.73 2.34-0.73 3.95q0 0.88 0.24 1.47q0.3 0.58 0.78 0.58q0.54 0 1.57-0.87q1.07-0.88 2.44-2.35q1.36-1.51 2.98-3.42q1.61-1.95 3.27-4.05q1.66-2.1 3.27-4.25q1.66-2.15 3.08-4.05q2.14-2.93 3.56-4.83q1.42-1.91 2.44-3.03q1.03-1.17 1.86-1.61q0.83-0.44 1.8-0.44q1.03 0 1.42 0.53q0.39 0.54 0.39 1.32q0 0.64-0.2 1.32q-0.14 0.69-0.39 1.22q-0.19 0.44-0.88 2.1q-0.63 1.61-1.56 3.91q-0.93 2.24-2 4.83q-1.02 2.59-2 4.93q-0.93 2.3-1.66 4.11q-0.73 1.75-0.98 2.34zm18.12-5.71l5.81-13.97q0.14-0.34 0.14-0.54q0-0.29-0.19-0.39q-0.15-0.14-0.39-0.14q-0.49 0-0.88 0.53l-9.67 11.97l-1.22-0.98l10.99-13.57q1.27-1.57 2.63-2.74q1.42-1.22 2.93-1.22q1.42 0 2.05 0.78q0.64 0.74 0.64 1.66q0 0.93-0.34 2.1q-0.34 1.17-0.88 2.44l-7.52 18.66q-0.69 1.71-1.12 3.12q-0.44 1.37-0.44 2.44q0 0.73 0.39 1.22q0.39 0.44 1.07 0.44q0.83 0 2.1-0.83q1.27-0.88 2.78-2.34q1.52-1.47 3.18-3.42q1.71-1.95 3.42-4.15q-0.83-1.22-1.23-2.88q-0.39-1.66-0.39-3.71q0-2.93 1.03-5.71q1.02-2.84 2.64-5.08q1.66-2.25 3.66-3.62q2.05-1.36 4.05-1.36q1.91 0 2.98 1.22q1.12 1.22 1.12 3.71q0 2-0.73 4.3q-0.73 2.29-2 4.68q-1.22 2.4-2.98 4.84q-1.71 2.44-3.66 4.68q0.58 0.15 1.32 0.15q1.31 0 2.54-0.19q1.22-0.25 2.53-0.98q1.32-0.73 2.79-2.1q1.51-1.42 3.37-3.71l1.17 1.02q-1.76 2.3-3.32 3.76q-1.56 1.47-3.08 2.3q-1.46 0.83-2.93 1.17q-1.46 0.34-3.03 0.34q-1.51 0-2.58-0.34q-2.1 2.3-4.4 4.25q-2.24 1.95-4.44 3.42q-2.2 1.41-4.25 2.24q-2 0.83-3.66 0.83q-2 0-3.17-1.27q-1.18-1.31-1.18-3.95q0-1.71 0.59-4.05q0.63-2.35 1.76-5.03zm15.77-5.62q0 3.17 0.93 5.08q1.66-2.34 3.17-4.74q1.56-2.44 2.69-4.64q1.12-2.24 1.8-4.15q0.69-1.95 0.69-3.32q0-0.63-0.2-1.17q-0.19-0.58-0.98-0.58q-0.87 0-2.29 1.07q-1.37 1.03-2.69 2.88q-1.27 1.81-2.19 4.3q-0.93 2.44-0.93 5.27zm49.36 0.93l1.18 1.02q-1.57 2.01-2.93 3.37q-1.37 1.37-2.69 2.25q-1.32 0.88-2.59 1.32q-1.22 0.44-2.49 0.58q-1.46 2.15-3.27 4.06q-1.76 1.85-3.76 3.27q-1.95 1.37-4.15 2.2q-2.2 0.78-4.44 0.78q-1.81 0-3.52-0.59q-1.71-0.63-3.07-1.85q-1.32-1.27-2.15-3.13q-0.78-1.9-0.78-4.44q0-3.96 1.41-7.82q1.42-3.9 3.96-7.27q2.54-3.37 6.1-6.06q3.56-2.68 7.86-4.29l0.44 0.68q-3.76 3.27-6.49 6.98q-2.69 3.71-4.45 7.47q-1.75 3.71-2.63 7.23q-0.83 3.52-0.83 6.4q0 0.92 0.19 1.8q0.2 0.83 0.59 1.52q0.44 0.63 1.02 1.02q0.59 0.39 1.42 0.39q1.07 0 2.34-0.73q1.32-0.73 2.69-1.95q1.37-1.27 2.73-2.98q1.42-1.71 2.74-3.66q-2.35-1.27-3.37-3.62q-1.03-2.39-1.03-5.17q0-2.59 0.93-5.03q0.93-2.49 2.39-4.4q1.47-1.9 3.23-3.02q1.75-1.17 3.41-1.17q0.88 0 1.91 0.39q1.02 0.39 1.9 1.31q0.88 0.93 1.47 2.49q0.58 1.57 0.58 3.91q0 3.13-1.12 6.64q-1.12 3.47-3.08 6.84q0.88-0.2 1.76-0.64q0.93-0.44 1.91-1.22q1.02-0.78 2.14-1.95q1.18-1.22 2.54-2.93zm-18.16-1.37q0 2.64 0.83 4.59q0.88 1.95 2.69 2.93q1.31-2.1 2.44-4.34q1.12-2.25 1.95-4.4q0.83-2.2 1.32-4.15q0.49-2 0.49-3.56q0-0.79-0.25-1.27q-0.24-0.49-0.63-0.74q-0.34-0.29-0.78-0.39q-0.39-0.09-0.69-0.09q-0.93 0-2.19 0.97q-1.27 0.93-2.45 2.54q-1.12 1.56-1.95 3.66q-0.78 2.05-0.78 4.25zm99.07-41.94l-4.78 3.71q-1.57-2.88-3.13-4.74q-1.56-1.9-3.12-2.98q-1.57-1.12-3.18-1.56q-1.61-0.44-3.27-0.44q-2.34 0-4.59 0.83q-2.24 0.78-4 2.4q-1.76 1.61-2.83 4q-1.08 2.39-1.08 5.52q0 2.63 1.37 5.32q1.37 2.68 3.37 5.52q2.05 2.78 4.44 5.71q2.39 2.93 4.4 6.05q2.05 3.13 3.41 6.5q1.37 3.32 1.37 6.88q0 4.54-2.25 8.3q-2.19 3.71-5.9 6.35q-3.67 2.64-8.45 4.1q-4.79 1.42-9.91 1.42q-3.91 0-7.23-0.88q-3.27-0.88-5.66-2.59q-2.4-1.76-3.76-4.25q-1.32-2.54-1.32-5.86q0-2.34 0.58-4.63q0.59-2.3 1.91-4.55q1.32-2.24 3.47-4.49q2.14-2.24 5.22-4.44l3.86 4.59q-2.3 1.17-4.4 2.64q-2.1 1.41-3.71 3.22q-1.61 1.81-2.59 4q-0.92 2.15-0.92 4.79q0 1.85 0.83 3.61q0.83 1.76 2.63 3.17q1.81 1.37 4.64 2.25q2.83 0.83 6.79 0.83q3.61 0 7.13-1.02q3.56-1.03 6.35-3.03q2.78-2 4.49-5.03q1.76-3.03 1.76-7.08q0-2.64-1.32-5.42q-1.27-2.78-3.27-5.67q-1.96-2.88-4.25-5.85q-2.25-2.98-4.25-6.01q-1.95-3.08-3.27-6.15q-1.27-3.13-1.27-6.3q0-4.69 1.85-7.86q1.86-3.23 4.79-5.18q2.93-2 6.44-2.83q3.57-0.88 6.94-0.88q3.12 0 5.52 0.73q2.44 0.69 4.29 1.81q1.91 1.12 3.32 2.59q1.42 1.41 2.54 2.88zm17.78 53.71q-0.2 0.44-0.35 0.93q-0.14 0.49-0.14 0.83q0 0.58 0.24 0.78q0.29 0.19 0.73 0.19q0.69 0 1.66-0.68q0.98-0.68 2.05-2l8.94-11.04l1.22 0.98l-10.79 13.33q-1.17 1.46-2.2 2.44q-1.02 0.98-1.95 1.56q-0.88 0.54-1.81 0.78q-0.88 0.25-1.8 0.25q-1.47 0-2.45-0.83q-0.97-0.88-0.97-2.2q0-1.46 0.54-3.03q0.58-1.56 1.66-3.9q0.39-0.83 0.92-2.15q0.59-1.37 1.22-2.83q0.64-1.52 1.27-3.03q0.64-1.51 1.13-2.73q0.48-1.27 0.78-2.1q0.34-0.83 0.34-0.98q0-0.49-0.34-0.49q-0.44 0-0.93 0.73q-0.29 0.39-1.17 1.66q-0.88 1.27-2.15 3.03q-1.27 1.76-2.73 3.81q-1.47 2.05-2.93 4q-1.47 1.96-2.79 3.57q-1.32 1.61-2.24 2.54q-2.35 2.34-4.15 3.71q-1.81 1.32-3.57 1.32q-0.58 0-1.32-0.25q-0.68-0.24-1.32-0.83q-0.58-0.63-0.97-1.71q-0.39-1.12-0.39-2.83q0-2.54 1.12-5.61q1.17-3.08 3.17-6.25q2.01-3.23 4.74-6.3q2.74-3.08 5.91-5.52q3.22-2.49 6.74-4.15q3.51-1.66 7.13-2v0.88q-2.98 0.88-5.72 2.73q-2.73 1.81-5.12 4.2q-2.4 2.39-4.35 5.13q-1.95 2.68-3.37 5.32q-1.41 2.64-2.2 5.03q-0.73 2.34-0.73 3.95q0 0.88 0.25 1.47q0.29 0.58 0.78 0.58q0.53 0 1.56-0.87q1.07-0.88 2.44-2.35q1.37-1.51 2.98-3.42q1.61-1.95 3.27-4.05q1.66-2.1 3.27-4.25q1.66-2.15 3.08-4.05q2.15-2.93 3.56-4.83q1.42-1.91 2.44-3.03q1.03-1.17 1.86-1.61q0.83-0.44 1.81-0.44q1.02 0 1.41 0.53q0.39 0.54 0.39 1.32q0 0.64-0.19 1.32q-0.15 0.69-0.39 1.22q-0.2 0.44-0.88 2.1q-0.64 1.61-1.56 3.91q-0.93 2.24-2.01 4.83q-1.02 2.59-2 4.93q-0.93 2.3-1.66 4.11q-0.73 1.75-0.97 2.34zm53.36-20.8l-15.33 23.92q-1.85 2.89-3.32 4.06q-1.46 1.17-2.83 1.17q-2.25 0-2.25-2.15q0-1.12 0.54-2.78q0.59-1.66 1.56-4.01l8.65-20.26q0.14-0.34 0.14-0.54q0-0.44-0.29-0.58q-0.29-0.2-0.54-0.2q-0.53 0-0.97 0.39q-0.44 0.39-0.83 0.98l-15.78 23.92q-1.9 2.84-3.36 4.06q-1.42 1.17-2.79 1.17q-2.24 0-2.24-2.15q0-1.12 0.53-2.78q0.59-1.66 1.57-4.01l8.1-19.09q0.15-0.34 0.15-0.54q0-0.29-0.2-0.39q-0.14-0.14-0.39-0.14q-0.49 0-0.88 0.53l-9.67 11.97l-1.22-0.98l10.99-13.57q1.27-1.57 2.64-2.74q1.41-1.22 2.93-1.22q1.41 0 2.05 0.78q0.63 0.74 0.63 1.66q0 0.93-0.34 2.1q-0.34 1.17-0.88 2.44l-6.79 15.97q-0.29 0.68-0.29 1.07q0 0.49 0.39 0.49q0.54 0 1.17-0.97l10.7-16.41q1.32-2.05 2.34-3.42q1.08-1.36 2.1-2.19q1.03-0.84 2.1-1.18q1.07-0.34 2.49-0.34q1.42 0 2.15 0.78q0.78 0.74 0.78 1.66q0 0.93-0.34 2.1q-0.34 1.17-0.88 2.44l-6.79 15.97q-0.29 0.68-0.29 1.07q0 0.49 0.39 0.49q0.54 0 1.17-0.97l9.43-15.19q1.51-2.34 2.73-3.95q1.27-1.66 2.34-2.69q1.13-1.03 2.15-1.46q1.03-0.49 2.1-0.49q1.86 0 2.83 0.73q0.98 0.73 0.98 2.15q0 0.83-0.24 1.76q-0.25 0.87-0.49 1.56l-8.5 20.8q-0.19 0.49-0.34 0.98q-0.15 0.44-0.15 0.78q0 0.58 0.25 0.78q0.29 0.19 0.73 0.19q0.68 0 1.66-0.68q0.98-0.68 2.05-2l8.94-11.04l1.22 0.98l-10.79 13.33q-1.18 1.46-2.2 2.44q-1.03 0.98-1.95 1.56q-0.88 0.54-1.81 0.78q-0.88 0.25-1.81 0.25q-1.46 0-2.44-0.83q-0.98-0.88-0.98-2.2q0-1.22 0.59-2.88q0.59-1.66 1.61-4.05l7.91-18.7q0.15-0.35 0.15-0.74q0-0.44-0.29-0.68q-0.3-0.29-0.69-0.29q-0.39 0-0.88 0.29q-0.48 0.29-0.88 0.93zm52.06 10.01l1.22 0.97q-4.64 5.77-9.28 9.18q-4.64 3.37-8.99 5.23q-4.29 1.85-8.1 2.59q-3.81 0.73-6.74 1.12v-0.88q3.27-1.17 6.1-3.12q2.88-1.96 5.23-4.3q2.34-2.34 4.2-4.93q1.85-2.59 3.12-5.08q1.27-2.54 1.91-4.74q0.68-2.24 0.68-3.85q0-0.98-0.29-1.62q-0.3-0.68-0.83-0.68q-0.73 0-2.05 1.12q-1.27 1.13-2.98 3.08q-1.71 1.9-3.66 4.44q-1.96 2.54-4.01 5.37q-2.05 2.84-4.05 5.81q-1.95 2.93-3.66 5.67q-1.71 2.68-3.08 5.03q-1.32 2.34-2.05 3.95q-0.93 2.01-1.95 4.35q-0.98 2.29-2 4.69q-0.98 2.34-1.91 4.64q-0.93 2.24-1.76 4.19l-6.88 2.15q0.73-1.66 1.56-3.56q0.83-1.95 1.66-3.96q0.88-2 1.71-4q0.88-2.05 1.66-3.91q1.81-4.34 3.66-8.69l13.63-32.52q-0.74 1.17-1.76 2.59q-0.98 1.42-2.35 3.27q-1.36 1.81-3.17 4.15q-1.81 2.35-4.2 5.28l-1.22-0.98q3.03-3.71 5.22-6.59q2.25-2.88 3.86-5.08q1.66-2.25 2.79-3.91q1.17-1.71 2-3.12q0.88-1.47 1.56-2.69q0.68-1.27 1.37-2.63l0.97-2.35h5.96l-12.65 30.13q-0.19 0.44-0.19 0.83q0 0.49 0.34 0.49q0.34 0 0.88-0.69q0.24-0.34 1.07-1.51q0.88-1.22 2.05-2.88q1.23-1.66 2.64-3.57q1.42-1.9 2.78-3.71q1.42-1.85 2.69-3.37q1.27-1.56 2.2-2.49q2.34-2.34 4.15-3.76q1.8-1.41 3.66-1.41q0.59 0 1.27 0.29q0.73 0.25 1.32 0.93q0.63 0.63 1.02 1.76q0.44 1.12 0.44 2.83q0 3.32-1.56 7.03q-1.56 3.66-4.2 7.18q-2.64 3.51-6.05 6.59q-3.37 3.08-7.04 5.22q1.67-0.48 4.2-1.56q2.54-1.07 5.47-2.88q2.98-1.85 6.16-4.54q3.22-2.73 6.25-6.59zm21.24 10.79q-0.2 0.44-0.35 0.93q-0.14 0.49-0.14 0.83q0 0.58 0.24 0.78q0.29 0.19 0.73 0.19q0.69 0 1.66-0.68q0.98-0.68 2.05-2l8.94-11.04l1.22 0.98l-10.79 13.33q-1.17 1.46-2.2 2.44q-1.02 0.98-1.95 1.56q-0.88 0.54-1.81 0.78q-0.88 0.25-1.8 0.25q-1.47 0-2.45-0.83q-0.97-0.88-0.97-2.2q0-1.46 0.54-3.03q0.58-1.56 1.66-3.9q0.39-0.83 0.92-2.15q0.59-1.37 1.22-2.83q0.64-1.52 1.27-3.03q0.64-1.51 1.13-2.73q0.48-1.27 0.78-2.1q0.34-0.83 0.34-0.98q0-0.49-0.34-0.49q-0.44 0-0.93 0.73q-0.29 0.39-1.17 1.66q-0.88 1.27-2.15 3.03q-1.27 1.76-2.73 3.81q-1.47 2.05-2.93 4q-1.47 1.96-2.79 3.57q-1.32 1.61-2.24 2.54q-2.35 2.34-4.15 3.71q-1.81 1.32-3.57 1.32q-0.58 0-1.32-0.25q-0.68-0.24-1.32-0.83q-0.58-0.63-0.97-1.71q-0.39-1.12-0.39-2.83q0-2.54 1.12-5.61q1.17-3.08 3.17-6.25q2.01-3.23 4.74-6.3q2.74-3.08 5.91-5.52q3.22-2.49 6.74-4.15q3.51-1.66 7.13-2v0.88q-2.98 0.88-5.72 2.73q-2.73 1.81-5.12 4.2q-2.4 2.39-4.35 5.13q-1.95 2.68-3.37 5.32q-1.41 2.64-2.2 5.03q-0.73 2.34-0.73 3.95q0 0.88 0.25 1.47q0.29 0.58 0.78 0.58q0.53 0 1.56-0.87q1.07-0.88 2.44-2.35q1.37-1.51 2.98-3.42q1.61-1.95 3.27-4.05q1.66-2.1 3.27-4.25q1.66-2.15 3.08-4.05q2.15-2.93 3.56-4.83q1.42-1.91 2.44-3.03q1.03-1.17 1.86-1.61q0.83-0.44 1.81-0.44q1.02 0 1.41 0.53q0.39 0.54 0.39 1.32q0 0.64-0.19 1.32q-0.15 0.69-0.39 1.22q-0.2 0.44-0.88 2.1q-0.64 1.61-1.56 3.91q-0.93 2.24-2.01 4.83q-1.02 2.59-2 4.93q-0.93 2.3-1.66 4.11q-0.73 1.75-0.97 2.34zm35.49-46.14q1.47 0 2.3 1.07q0.83 1.03 0.83 2.44q0 0.78-0.29 1.61q-0.25 0.78-0.79 1.42q-0.48 0.63-1.22 1.07q-0.68 0.39-1.61 0.39q-1.41 0-2.29-1.07q-0.88-1.12-0.88-2.49q0-1.03 0.34-1.81q0.39-0.83 0.93-1.41q0.58-0.59 1.27-0.88q0.73-0.34 1.41-0.34zm-19.38 44.53l7.81-18.07q0.15-0.34 0.15-0.54q0-0.29-0.2-0.39q-0.14-0.14-0.39-0.14q-0.49 0-0.88 0.53l-9.67 11.97l-1.22-0.98l10.99-13.57q1.27-1.57 2.64-2.74q1.41-1.22 2.93-1.22q1.41 0 2.05 0.78q0.63 0.74 0.63 1.66q0 0.93-0.34 2.1q-0.34 1.17-0.88 2.44l-8.2 19.78q-0.2 0.49-0.34 0.98q-0.15 0.44-0.15 0.78q0 0.58 0.24 0.78q0.3 0.19 0.74 0.19q0.68 0 1.66-0.68q0.97-0.68 2.05-2l8.93-11.04l1.22 0.98l-10.79 13.33q-1.17 1.46-2.19 2.44q-1.03 0.98-1.96 1.56q-0.88 0.54-1.8 0.78q-0.88 0.25-1.81 0.25q-1.47 0-2.44-0.83q-0.98-0.88-0.98-2.2q0-1.22 0.59-2.88q0.58-1.66 1.61-4.05zm50.68-8.79l1.17 1.02q-1.56 2.01-2.93 3.37q-1.36 1.37-2.68 2.25q-1.32 0.88-2.59 1.32q-1.22 0.44-2.49 0.58q-1.46 2.15-3.27 4.06q-1.76 1.85-3.76 3.27q-1.95 1.37-4.15 2.2q-2.2 0.78-4.44 0.78q-1.81 0-3.52-0.59q-1.71-0.63-3.08-1.85q-1.31-1.27-2.14-3.13q-0.79-1.9-0.79-4.44q0-3.96 1.42-7.82q1.42-3.9 3.96-7.27q2.53-3.37 6.1-6.06q3.56-2.68 7.86-4.29l0.44 0.68q-3.76 3.27-6.49 6.98q-2.69 3.71-4.45 7.47q-1.76 3.71-2.63 7.23q-0.83 3.52-0.83 6.4q0 0.92 0.19 1.8q0.2 0.83 0.59 1.52q0.44 0.63 1.02 1.02q0.59 0.39 1.42 0.39q1.07 0 2.34-0.73q1.32-0.73 2.69-1.95q1.36-1.27 2.73-2.98q1.42-1.71 2.74-3.66q-2.35-1.27-3.37-3.62q-1.03-2.39-1.03-5.17q0-2.59 0.93-5.03q0.93-2.49 2.39-4.4q1.47-1.9 3.22-3.02q1.76-1.17 3.42-1.17q0.88 0 1.91 0.39q1.02 0.39 1.9 1.31q0.88 0.93 1.47 2.49q0.58 1.57 0.58 3.91q0 3.13-1.12 6.64q-1.12 3.47-3.08 6.84q0.88-0.2 1.76-0.64q0.93-0.44 1.9-1.22q1.03-0.78 2.15-1.95q1.18-1.22 2.54-2.93zm-18.16-1.37q0 2.64 0.83 4.59q0.88 1.95 2.68 2.93q1.32-2.1 2.45-4.34q1.12-2.25 1.95-4.4q0.83-2.2 1.32-4.15q0.49-2 0.49-3.56q0-0.79-0.25-1.27q-0.24-0.49-0.63-0.74q-0.35-0.29-0.79-0.39q-0.39-0.09-0.68-0.09q-0.93 0-2.2 0.97q-1.27 0.93-2.44 2.54q-1.12 1.56-1.95 3.66q-0.78 2.05-0.78 4.25z" />
</svg>